<svg width="113" height="32" viewBox="0 0 113 32" fill="none" xmlns="http://www.w3.org/2000/svg">
<path d="M43.0173 21.2331L51.7757 10.515H43.356V7.03098H56.542V10.0069L48.1949 20.725H56.6387V24.209H43.0173V21.2331ZM57.8991 20.4105C57.8991 19.5718 58.133 18.8379 58.6008 18.2088C59.0685 17.5797 59.7137 17.0878 60.5363 16.7329C61.3589 16.362 62.3025 16.1765 63.3671 16.1765C63.8832 16.1765 64.3913 16.2249 64.8913 16.3216C65.3913 16.4023 65.8268 16.5233 66.1978 16.6846V16.1281C66.1978 15.4345 65.9881 14.9022 65.5687 14.5313C65.1494 14.1603 64.5123 13.9748 63.6574 13.9748C62.9477 13.9748 62.2783 14.0958 61.6493 14.3377C61.0363 14.5796 60.3831 14.9264 59.6895 15.3781L58.5282 12.9102C59.3669 12.3618 60.2379 11.9505 61.1412 11.6763C62.0606 11.4021 63.0283 11.265 64.0445 11.265C65.9478 11.265 67.4237 11.7247 68.4721 12.6441C69.5366 13.5473 70.0689 14.8619 70.0689 16.5878V19.9024C70.0689 20.2895 70.1254 20.5637 70.2383 20.725C70.3673 20.8702 70.5851 20.9589 70.8915 20.9912V24.209C70.5689 24.2735 70.2625 24.3219 69.9721 24.3542C69.6979 24.3864 69.456 24.4026 69.2463 24.4026C68.5205 24.4026 67.964 24.2574 67.5769 23.9671C67.2059 23.6767 66.972 23.2816 66.8752 22.7815L66.8027 22.2251C66.2381 22.9509 65.5607 23.5074 64.7703 23.8945C63.9961 24.2655 63.1816 24.451 62.3267 24.451C61.488 24.451 60.7299 24.2735 60.0524 23.9187C59.3911 23.5638 58.8669 23.0799 58.4798 22.467C58.0927 21.8541 57.8991 21.1686 57.8991 20.4105ZM65.5929 20.8944C65.7704 20.7492 65.9155 20.5879 66.0284 20.4105C66.1413 20.2331 66.1978 20.0637 66.1978 19.9024V18.7653C65.8752 18.6362 65.5123 18.5395 65.1091 18.4749C64.7219 18.3943 64.359 18.354 64.0203 18.354C63.3106 18.354 62.7219 18.5153 62.2541 18.8379C61.7864 19.1443 61.5525 19.5556 61.5525 20.0718C61.5525 20.3621 61.6331 20.6282 61.7944 20.8702C61.9557 21.1121 62.1735 21.3057 62.4477 21.4509C62.738 21.596 63.0767 21.6686 63.4638 21.6686C63.8509 21.6686 64.2381 21.596 64.6252 21.4509C65.0123 21.3057 65.3349 21.1202 65.5929 20.8944ZM80.9307 14.8216C79.9952 14.8216 79.1484 14.9748 78.3903 15.2813C77.6322 15.5716 77.0838 16.0071 76.7451 16.5878V24.209H72.8739V11.5069H76.4305V14.0716C76.866 13.2167 77.4306 12.5473 78.1241 12.0634C78.8177 11.5795 79.5435 11.3295 80.3016 11.3134C80.4791 11.3134 80.6081 11.3134 80.6887 11.3134C80.7855 11.3134 80.8662 11.3215 80.9307 11.3376V14.8216ZM90.6179 14.8216C89.6824 14.8216 88.8356 14.9748 88.0775 15.2813C87.3194 15.5716 86.771 16.0071 86.4323 16.5878V24.209H82.5612V11.5069H86.1177V14.0716C86.5532 13.2167 87.1178 12.5473 87.8113 12.0634C88.5049 11.5795 89.2308 11.3295 89.9888 11.3134C90.1663 11.3134 90.2953 11.3134 90.376 11.3134C90.4727 11.3134 90.5534 11.3215 90.6179 11.3376V14.8216ZM92.2484 24.209V11.5069H96.1195V24.209H92.2484ZM92.2484 10.0553V6.54709H96.1195V10.0553H92.2484ZM111.012 24.209H107.141V17.0717C107.141 16.2329 106.979 15.6281 106.657 15.2571C106.35 14.87 105.939 14.6764 105.423 14.6764C105.068 14.6764 104.705 14.7732 104.334 14.9667C103.963 15.1603 103.625 15.4264 103.318 15.7652C103.028 16.1039 102.802 16.491 102.641 16.9265V24.209H98.7695V11.5069H102.254V13.6361C102.576 13.136 102.979 12.7086 103.463 12.3538C103.947 11.9989 104.504 11.7328 105.133 11.5553C105.762 11.3618 106.447 11.265 107.189 11.265C108.012 11.265 108.673 11.4182 109.173 11.7247C109.689 12.015 110.076 12.4021 110.334 12.886C110.609 13.3699 110.786 13.8941 110.867 14.4587C110.964 15.0071 111.012 15.5474 111.012 16.0797V24.209Z" fill="#333333"/>
<path d="M3.51216 27.9827C0.785633 25.2939 -0.493489 21.2046 0.275272 17.4463C1.03576 13.2255 4.31402 9.54626 8.45393 8.38668C10.4807 10.4428 12.5331 12.4714 14.5691 14.5165C14.9884 14.9211 15.3728 15.3616 15.8252 15.7304C14.3824 15.7451 12.9368 15.6917 11.4959 15.7478C9.505 15.8738 7.81851 17.7516 7.92978 19.748C7.91138 21.7627 9.71834 23.5835 11.734 23.5715C15.6992 23.5807 19.6635 23.5706 23.6268 23.578C26.232 26.1859 28.8325 28.7993 31.4515 31.3943C31.0469 31.4716 30.6358 31.4504 30.2275 31.4467C24.1133 31.4477 18.0009 31.4467 11.8885 31.4477C8.78865 31.4559 5.69154 30.198 3.51216 27.9827Z" fill="#7C4EE4"/>
<path d="M7.72439 7.69208C5.14683 5.132 2.60882 2.52962 -1.00827e-06 -0.00012207C6.10227 0.0237863 12.2036 0.00355476 18.3059 0.0109111C19.3303 0.024705 20.3648 -0.0470189 21.3772 0.145171C23.9723 0.502883 26.4303 1.77281 28.2262 3.67816C30.2226 5.74811 31.3904 8.57855 31.4815 11.4494C31.5495 13.8155 30.8801 16.1999 29.5991 18.1899C28.0919 20.5045 25.7627 22.3344 23.083 23.0664C21.0821 21.0332 19.0498 19.0285 17.036 17.0064C16.6304 16.6303 16.2902 16.1797 15.8249 15.8689C15.904 15.8036 15.9895 15.7484 16.0833 15.7043C17.3624 15.731 18.6443 15.7273 19.9243 15.7107C21.9106 15.6556 23.6541 13.8403 23.6146 11.8513C23.6725 10.2356 22.5791 8.68338 21.072 8.12888C20.4972 7.88059 19.8627 7.87692 19.2475 7.88243C15.5343 7.88611 11.822 7.88151 8.10969 7.88519C7.95428 7.88611 7.82554 7.82174 7.72439 7.69208Z" fill="#7C4EE4"/>
</svg>
