<svg width="157" height="44" viewBox="0 0 157 44" fill="none" xmlns="http://www.w3.org/2000/svg">
<path d="M59.9103 29.8554L72.1081 14.9283H60.382V10.0761H78.7461V14.2207L67.1211 29.1478H78.8809V34H59.9103V29.8554ZM80.6363 28.7098C80.6363 27.5417 80.962 26.5196 81.6134 25.6435C82.2649 24.7674 83.1634 24.0822 84.3091 23.588C85.4547 23.0714 86.7689 22.813 88.2515 22.813C88.9703 22.813 89.6779 22.8804 90.3743 23.0152C91.0707 23.1275 91.6772 23.296 92.1939 23.5207V22.7457C92.1939 21.7797 91.9018 21.0384 91.3178 20.5217C90.7337 20.0051 89.8464 19.7467 88.6558 19.7467C87.6674 19.7467 86.7352 19.9152 85.8591 20.2522C85.0055 20.5891 84.0957 21.0721 83.1297 21.7011L81.5123 18.2641C82.6805 17.5004 83.8935 16.9275 85.1515 16.5457C86.4319 16.1638 87.7797 15.9728 89.195 15.9728C91.8457 15.9728 93.9011 16.613 95.3613 17.8935C96.8439 19.1514 97.5852 20.9822 97.5852 23.3859V28.0022C97.5852 28.5413 97.6638 28.9232 97.821 29.1478C98.0008 29.35 98.304 29.4736 98.7308 29.5185V34C98.2816 34.0899 97.8547 34.1572 97.4504 34.2022C97.0685 34.2471 96.7316 34.2696 96.4395 34.2696C95.4287 34.2696 94.6537 34.0674 94.1145 33.663C93.5979 33.2587 93.2721 32.7083 93.1373 32.012L93.0363 31.237C92.25 32.2478 91.3066 33.0228 90.2058 33.562C89.1276 34.0786 87.9931 34.337 86.8026 34.337C85.6344 34.337 84.5787 34.0899 83.6352 33.5957C82.7142 33.1014 81.9841 32.4275 81.445 31.5739C80.9058 30.7203 80.6363 29.7656 80.6363 28.7098ZM91.3515 29.3837C91.5986 29.1815 91.8008 28.9569 91.958 28.7098C92.1152 28.4627 92.1939 28.2268 92.1939 28.0022V26.4185C91.7446 26.2388 91.2392 26.104 90.6776 26.0141C90.1384 25.9018 89.633 25.8457 89.1613 25.8457C88.1729 25.8457 87.3529 26.0703 86.7015 26.5196C86.05 26.9464 85.7243 27.5192 85.7243 28.238C85.7243 28.6424 85.8366 29.013 86.0613 29.35C86.2859 29.687 86.5892 29.9565 86.971 30.1587C87.3754 30.3609 87.8471 30.462 88.3863 30.462C88.9254 30.462 89.4645 30.3609 90.0037 30.1587C90.5428 29.9565 90.9921 29.6982 91.3515 29.3837ZM112.712 20.9261C111.41 20.9261 110.23 21.1395 109.174 21.5663C108.119 21.9707 107.355 22.5772 106.883 23.3859V34H101.492V16.3098H106.445V19.8815C107.052 18.6909 107.838 17.7587 108.804 17.0848C109.77 16.4109 110.781 16.0627 111.836 16.0402C112.083 16.0402 112.263 16.0402 112.375 16.0402C112.51 16.0402 112.623 16.0514 112.712 16.0739V20.9261ZM126.204 20.9261C124.901 20.9261 123.722 21.1395 122.666 21.5663C121.61 21.9707 120.846 22.5772 120.374 23.3859V34H114.983V16.3098H119.936V19.8815C120.543 18.6909 121.329 17.7587 122.295 17.0848C123.261 16.4109 124.272 16.0627 125.328 16.0402C125.575 16.0402 125.755 16.0402 125.867 16.0402C126.002 16.0402 126.114 16.0514 126.204 16.0739V20.9261ZM128.475 34V16.3098H133.866V34H128.475ZM128.475 14.288V9.40217H133.866V14.288H128.475ZM154.607 34H149.215V24.0598C149.215 22.8917 148.991 22.0493 148.541 21.5326C148.115 20.9935 147.542 20.7239 146.823 20.7239C146.329 20.7239 145.823 20.8587 145.307 21.1283C144.79 21.3978 144.318 21.7685 143.891 22.2402C143.487 22.712 143.173 23.2511 142.948 23.8576V34H137.557V16.3098H142.409V19.275C142.858 18.5786 143.42 17.9833 144.094 17.4891C144.768 16.9949 145.543 16.6243 146.419 16.3772C147.295 16.1076 148.249 15.9728 149.283 15.9728C150.428 15.9728 151.349 16.1862 152.046 16.613C152.765 17.0174 153.304 17.5565 153.663 18.2304C154.045 18.9043 154.292 19.6344 154.404 20.4207C154.539 21.1844 154.607 21.937 154.607 22.6783V34Z" fill="#150E06"/>
<path d="M4.88945 38.9723C1.09221 35.2276 -0.689229 29.5324 0.381427 24.2982C1.44056 18.4198 6.00621 13.2958 11.7719 11.6808C14.5945 14.5445 17.453 17.3696 20.2885 20.2179C20.8725 20.7814 21.4078 21.3949 22.0379 21.9084C20.0285 21.9289 18.0152 21.8546 16.0084 21.9327C13.2357 22.1082 10.8869 24.7234 11.0419 27.5037C11.0163 30.3097 13.5328 32.8455 16.3401 32.8288C21.8624 32.8417 27.3835 32.8276 32.9033 32.8378C36.5314 36.4698 40.1532 40.1096 43.8006 43.7237C43.2371 43.8312 42.6647 43.8018 42.096 43.7967C33.5807 43.798 25.068 43.7967 16.5553 43.798C12.238 43.8095 7.92469 42.0575 4.88945 38.9723Z" fill="#7C4EE4"/>
<path d="M10.7578 10.7129C7.16802 7.14747 3.63331 3.52312 -1.40422e-06 -4.95911e-05C8.49865 0.0332485 16.996 0.00506899 25.4947 0.0153149C26.9214 0.0345256 28.3621 -0.0653661 29.7722 0.2023C33.3863 0.700488 36.8096 2.46912 39.3108 5.1227C42.0911 8.00554 43.7176 11.9475 43.8444 15.9458C43.9392 19.241 43.0068 22.5618 41.2228 25.3333C39.1238 28.5568 35.8798 31.1053 32.1479 32.1248C29.3611 29.2932 26.5308 26.5012 23.726 23.685C23.1613 23.1612 22.6874 22.5337 22.0394 22.1008C22.1495 22.0099 22.2686 21.933 22.3993 21.8716C24.1807 21.9087 25.966 21.9036 27.7487 21.8805C30.515 21.8037 32.9432 19.2756 32.8881 16.5055C32.9688 14.2553 31.446 12.0935 29.347 11.3212C28.5466 10.9755 27.6629 10.9703 26.8061 10.978C21.6347 10.9831 16.4645 10.9767 11.2944 10.9819C11.078 10.9831 10.8987 10.8935 10.7578 10.7129Z" fill="#7C4EE4"/>
</svg>
