<svg width="17" height="17" viewBox="0 0 17 17" fill="none" xmlns="http://www.w3.org/2000/svg">
<path fill-rule="evenodd" clip-rule="evenodd" d="M12.394 2.39129C15.2142 5.06735 15.3887 9.50315 12.7875 12.3925L16.0223 15.6166C16.1648 15.7642 16.1628 15.9987 16.0177 16.1437C15.8727 16.2887 15.6382 16.2908 15.4907 16.1483L12.2559 12.9242C9.36646 15.5254 4.93066 15.3508 2.2546 12.5306C-0.421465 9.71043 -0.363268 5.27158 2.38581 2.5225C5.13489 -0.22658 9.57375 -0.284776 12.394 2.39129ZM1.0918 7.62219C1.0918 11.1523 3.95348 14.0139 7.48355 14.0139C11.0119 14.0098 13.8712 11.1505 13.8753 7.62219C13.8753 4.09212 11.0136 1.23044 7.48355 1.23044C3.95348 1.23044 1.0918 4.09212 1.0918 7.62219Z" fill="#333333"/>
</svg>
